{
  "accessors": [
    {
      "bufferView": 2,
      "componentType": 5126,
      "count": 11165,
      "max": [
        33.369136810302734,
        48.81962966918945,
        47.45545959472656
      ],
      "min": [
        -33.51100540161133,
        -0.010541200637817383,
        -54.50339889526367
      ],
      "type": "VEC3"
    },
    {
      "bufferView": 2,
      "byteOffset": 133980,
      "componentType": 5126,
      "count": 11165,
      "max": [
        1.0,
        0.9999093413352966,
        0.9999998807907104
      ],
      "min": [
        -1.0,
        -0.999996542930603,
        -0.9999054670333862
      ],
      "type": "VEC3"
    },
    {
      "bufferView": 3,
      "componentType": 5126,
      "count": 11165,
      "max": [
        1.0,
        0.9998131990432739,
        0.9999750256538391,
        1.0
      ],
      "min": [
        -1.0,
        -0.9999868869781494,
        -0.9995440244674683,
        -1.0
      ],
      "type": "VEC4"
    },
    {
      "bufferView": 1,
      "componentType": 5126,
      "count": 11165,
      "max": [
        2.3407490253448486,
        0.9977980256080627
      ],
      "min": [
        0.0033009999897331,
        0.0008839964866638184
      ],
      "type": "VEC2"
    },
    {
      "bufferView": 1,
      "byteOffset": 89320,
      "componentType": 5126,
      "count": 11165,
      "max": [
        2.3407490253448486,
        0.9977980256080627
      ],
      "min": [
        0.0033009999897331,
        0.0008839964866638184
      ],
      "type": "VEC2"
    },
    {
      "bufferView": 1,
      "byteOffset": 178640,
      "componentType": 5126,
      "count": 11165,
      "max": [
        2.3407490253448486,
        0.9977980256080627
      ],
      "min": [
        0.0033009999897331,
        0.0008839964866638184
      ],
      "type": "VEC2"
    },
    {
      "bufferView": 1,
      "byteOffset": 267960,
      "componentType": 5126,
      "count": 11165,
      "max": [
        2.3407490253448486,
        0.9977980256080627
      ],
      "min": [
        0.0033009999897331,
        0.0008839964866638184
      ],
      "type": "VEC2"
    },
    {
      "bufferView": 1,
      "byteOffset": 357280,
      "componentType": 5126,
      "count": 11165,
      "max": [
        2.3407490253448486,
        0.9977980256080627
      ],
      "min": [
        0.0033009999897331,
        0.0008839964866638184
      ],
      "type": "VEC2"
    },
    {
      "bufferView": 0,
      "componentType": 5125,
      "count": 39237,
      "type": "SCALAR"
    }
  ],
  "asset": {
    "extras": {
      "author": "Fireonit (https://sketchfab.com/Fire2497)",
      "license": "CC-BY-4.0 (http://creativecommons.org/licenses/by/4.0/)",
      "source": "https://sketchfab.com/3d-models/space-shuttle-d6c588b68a5c4989a52182e368e044a7",
      "title": "Space Shuttle"
    },
    "generator": "Sketchfab-14.64.0",
    "version": "2.0"
  },
  "bufferViews": [
    {
      "buffer": 0,
      "byteLength": 156948,
      "name": "floatBufferViews",
      "target": 34963
    },
    {
      "buffer": 0,
      "byteLength": 446600,
      "byteOffset": 156948,
      "byteStride": 8,
      "name": "floatBufferViews",
      "target": 34962
    },
    {
      "buffer": 0,
      "byteLength": 267960,
      "byteOffset": 603548,
      "byteStride": 12,
      "name": "floatBufferViews",
      "target": 34962
    },
    {
      "buffer": 0,
      "byteLength": 178640,
      "byteOffset": 871508,
      "byteStride": 16,
      "name": "floatBufferViews",
      "target": 34962
    }
  ],
  "buffers": [
    {
      "byteLength": 1050148,
      "uri": "scene.bin"
    }
  ],
  "extensionsRequired": [
    "KHR_materials_pbrSpecularGlossiness"
  ],
  "extensionsUsed": [
    "KHR_materials_pbrSpecularGlossiness"
  ],
  "images": [
    {
      "uri": "textures/material_0_diffuse.png"
    },
    {
      "uri": "textures/material_0_specularGlossiness.png"
    },
    {
      "uri": "textures/material_0_normal.png"
    },
    {
      "uri": "textures/material_0_occlusion.png"
    }
  ],
  "materials": [
    {
      "doubleSided": true,
      "extensions": {
        "KHR_materials_pbrSpecularGlossiness": {
          "diffuseFactor": [
            1.0,
            1.0,
            1.0,
            1.0
          ],
          "diffuseTexture": {
            "index": 0
          },
          "glossinessFactor": 1.0,
          "specularFactor": [
            1.0,
            1.0,
            1.0
          ],
          "specularGlossinessTexture": {
            "index": 1
          }
        }
      },
      "name": "material_0",
      "normalTexture": {
        "index": 2
      },
      "occlusionTexture": {
        "index": 3
      }
    }
  ],
  "meshes": [
    {
      "name": "Object_0",
      "primitives": [
        {
          "attributes": {
            "NORMAL": 1,
            "POSITION": 0,
            "TANGENT": 2,
            "TEXCOORD_0": 3,
            "TEXCOORD_1": 4,
            "TEXCOORD_2": 5,
            "TEXCOORD_3": 6,
            "TEXCOORD_4": 7
          },
          "indices": 8,
          "material": 0,
          "mode": 4
        }
      ]
    }
  ],
  "nodes": [
    {
      "children": [
        1
      ],
      "matrix": [
        1.0,
        0.0,
        0.0,
        0.0,
        0.0,
        2.220446049250313e-16,
        -1.0,
        0.0,
        0.0,
        1.0,
        2.220446049250313e-16,
        0.0,
        0.0,
        0.0,
        0.0,
        1.0
      ],
      "name": "Sketchfab_model"
    },
    {
      "children": [
        2
      ],
      "name": "root"
    },
    {
      "children": [
        3
      ],
      "matrix": [
        1.0,
        0.0,
        0.0,
        0.0,
        0.0,
        2.220446049250313e-16,
        1.0,
        0.0,
        0.0,
        -1.0,
        2.220446049250313e-16,
        0.0,
        0.0,
        0.0,
        0.0,
        1.0
      ],
      "name": "GLTF_SceneRootNode"
    },
    {
      "children": [
        4
      ],
      "matrix": [
        0.009999999776482582,
        0.0,
        0.0,
        0.0,
        0.0,
        0.009999999776482582,
        0.0,
        0.0,
        0.0,
        0.0,
        0.009999999776482582,
        0.0,
        0.0,
        0.0,
        0.0,
        1.0
      ],
      "name": "RootNode.0_0"
    },
    {
      "children": [
        5
      ],
      "matrix": [
        -1.0,
        0.0,
        1.0106430784888624e-15,
        0.0,
        0.0,
        1.0,
        0.0,
        0.0,
        -1.0106430784888624e-15,
        0.0,
        -1.0,
        0.0,
        0.0,
        0.0,
        0.0,
        1.0
      ],
      "name": "space_shuttle.1_1"
    },
    {
      "mesh": 0,
      "name": "Object_5"
    }
  ],
  "samplers": [
    {
      "magFilter": 9729,
      "minFilter": 9987,
      "wrapS": 10497,
      "wrapT": 10497
    }
  ],
  "scene": 0,
  "scenes": [
    {
      "name": "Sketchfab_Scene",
      "nodes": [
        0
      ]
    }
  ],
  "textures": [
    {
      "sampler": 0,
      "source": 0
    },
    {
      "sampler": 0,
      "source": 1
    },
    {
      "sampler": 0,
      "source": 2
    },
    {
      "sampler": 0,
      "source": 3
    }
  ]
}
